<svg id="visual" viewBox="0 0 900 150" width="900" height="150" xmlns="http://www.w3.org/2000/svg" xmlns:xlink="http://www.w3.org/1999/xlink" version="1.1"><rect x="0" y="0" width="900" height="150" fill="#324759"></rect><path d="M0 29L21.5 32C43 35 86 41 128.8 41C171.7 41 214.3 35 257.2 31.5C300 28 343 27 385.8 32.3C428.7 37.7 471.3 49.3 514.2 56.5C557 63.7 600 66.3 642.8 64.8C685.7 63.3 728.3 57.7 771.2 53.3C814 49 857 46 878.5 44.5L900 43L900 151L878.5 151C857 151 814 151 771.2 151C728.3 151 685.7 151 642.8 151C600 151 557 151 514.2 151C471.3 151 428.7 151 385.8 151C343 151 300 151 257.2 151C214.3 151 171.7 151 128.8 151C86 151 43 151 21.5 151L0 151Z" fill="#fa7268"></path><path d="M0 48L21.5 48.3C43 48.7 86 49.3 128.8 53.3C171.7 57.3 214.3 64.7 257.2 70.3C300 76 343 80 385.8 82.2C428.7 84.3 471.3 84.7 514.2 81.8C557 79 600 73 642.8 70.7C685.7 68.3 728.3 69.7 771.2 68.3C814 67 857 63 878.5 61L900 59L900 151L878.5 151C857 151 814 151 771.2 151C728.3 151 685.7 151 642.8 151C600 151 557 151 514.2 151C471.3 151 428.7 151 385.8 151C343 151 300 151 257.2 151C214.3 151 171.7 151 128.8 151C86 151 43 151 21.5 151L0 151Z" fill="#fe9489"></path><path d="M0 87L21.5 85.5C43 84 86 81 128.8 83.2C171.7 85.3 214.3 92.7 257.2 96.3C300 100 343 100 385.8 100.5C428.7 101 471.3 102 514.2 101.2C557 100.3 600 97.7 642.8 95.5C685.7 93.3 728.3 91.7 771.2 93.3C814 95 857 100 878.5 102.5L900 105L900 151L878.5 151C857 151 814 151 771.2 151C728.3 151 685.7 151 642.8 151C600 151 557 151 514.2 151C471.3 151 428.7 151 385.8 151C343 151 300 151 257.2 151C214.3 151 171.7 151 128.8 151C86 151 43 151 21.5 151L0 151Z" fill="#feb4ab"></path><path d="M0 101L21.5 103.7C43 106.3 86 111.7 128.8 114.5C171.7 117.3 214.3 117.7 257.2 116.2C300 114.7 343 111.3 385.8 107.8C428.7 104.3 471.3 100.7 514.2 98.5C557 96.3 600 95.7 642.8 96.5C685.7 97.3 728.3 99.7 771.2 101.3C814 103 857 104 878.5 104.5L900 105L900 151L878.5 151C857 151 814 151 771.2 151C728.3 151 685.7 151 642.8 151C600 151 557 151 514.2 151C471.3 151 428.7 151 385.8 151C343 151 300 151 257.2 151C214.3 151 171.7 151 128.8 151C86 151 43 151 21.5 151L0 151Z" fill="#fad3ce"></path><path d="M0 112L21.5 113.7C43 115.3 86 118.7 128.8 120C171.7 121.3 214.3 120.7 257.2 119.2C300 117.7 343 115.3 385.8 115.2C428.7 115 471.3 117 514.2 120.7C557 124.3 600 129.7 642.8 132.3C685.7 135 728.3 135 771.2 134.7C814 134.3 857 133.7 878.5 133.3L900 133L900 151L878.5 151C857 151 814 151 771.2 151C728.3 151 685.7 151 642.8 151C600 151 557 151 514.2 151C471.3 151 428.7 151 385.8 151C343 151 300 151 257.2 151C214.3 151 171.7 151 128.8 151C86 151 43 151 21.5 151L0 151Z" fill="#f2f2f2"></path></svg>