<svg id="visual" viewBox="0 0 960 150" width="960" height="150" xmlns="http://www.w3.org/2000/svg" xmlns:xlink="http://www.w3.org/1999/xlink" version="1.1"><rect x="0" y="0" width="960" height="150" fill="#590202"></rect><path d="M0 62L32 55.3C64 48.7 128 35.3 192 27.7C256 20 320 18 384 23C448 28 512 40 576 47C640 54 704 56 768 52.2C832 48.3 896 38.7 928 33.8L960 29L960 151L928 151C896 151 832 151 768 151C704 151 640 151 576 151C512 151 448 151 384 151C320 151 256 151 192 151C128 151 64 151 32 151L0 151Z" fill="#f28f6b"></path><path d="M0 51L32 52C64 53 128 55 192 59C256 63 320 69 384 64.3C448 59.7 512 44.3 576 37.8C640 31.3 704 33.7 768 36.7C832 39.7 896 43.3 928 45.2L960 47L960 151L928 151C896 151 832 151 768 151C704 151 640 151 576 151C512 151 448 151 384 151C320 151 256 151 192 151C128 151 64 151 32 151L0 151Z" fill="#f49c7b"></path><path d="M0 60L32 57.8C64 55.7 128 51.3 192 51C256 50.7 320 54.3 384 59C448 63.7 512 69.3 576 73.5C640 77.7 704 80.3 768 76.7C832 73 896 63 928 58L960 53L960 151L928 151C896 151 832 151 768 151C704 151 640 151 576 151C512 151 448 151 384 151C320 151 256 151 192 151C128 151 64 151 32 151L0 151Z" fill="#f6a88c"></path><path d="M0 62L32 64.7C64 67.3 128 72.7 192 79.2C256 85.7 320 93.3 384 91.8C448 90.3 512 79.7 576 77.7C640 75.7 704 82.3 768 82.2C832 82 896 75 928 71.5L960 68L960 151L928 151C896 151 832 151 768 151C704 151 640 151 576 151C512 151 448 151 384 151C320 151 256 151 192 151C128 151 64 151 32 151L0 151Z" fill="#f7b59c"></path><path d="M0 105L32 99C64 93 128 81 192 79.7C256 78.3 320 87.7 384 90.8C448 94 512 91 576 89.3C640 87.7 704 87.3 768 90.7C832 94 896 101 928 104.5L960 108L960 151L928 151C896 151 832 151 768 151C704 151 640 151 576 151C512 151 448 151 384 151C320 151 256 151 192 151C128 151 64 151 32 151L0 151Z" fill="#f8c1ad"></path><path d="M0 100L32 100.8C64 101.7 128 103.3 192 103.2C256 103 320 101 384 99C448 97 512 95 576 94.3C640 93.7 704 94.3 768 98.7C832 103 896 111 928 115L960 119L960 151L928 151C896 151 832 151 768 151C704 151 640 151 576 151C512 151 448 151 384 151C320 151 256 151 192 151C128 151 64 151 32 151L0 151Z" fill="#f8cdbe"></path><path d="M0 107L32 106.5C64 106 128 105 192 103.5C256 102 320 100 384 102.7C448 105.3 512 112.7 576 113.3C640 114 704 108 768 106.7C832 105.3 896 108.7 928 110.3L960 112L960 151L928 151C896 151 832 151 768 151C704 151 640 151 576 151C512 151 448 151 384 151C320 151 256 151 192 151C128 151 64 151 32 151L0 151Z" fill="#f7d9cf"></path><path d="M0 135L32 132.3C64 129.7 128 124.3 192 120.2C256 116 320 113 384 112.5C448 112 512 114 576 116.5C640 119 704 122 768 124.5C832 127 896 129 928 130L960 131L960 151L928 151C896 151 832 151 768 151C704 151 640 151 576 151C512 151 448 151 384 151C320 151 256 151 192 151C128 151 64 151 32 151L0 151Z" fill="#f5e6e0"></path><path d="M0 128L32 128.5C64 129 128 130 192 131.2C256 132.3 320 133.7 384 134.7C448 135.7 512 136.3 576 135.5C640 134.7 704 132.3 768 133.2C832 134 896 138 928 140L960 142L960 151L928 151C896 151 832 151 768 151C704 151 640 151 576 151C512 151 448 151 384 151C320 151 256 151 192 151C128 151 64 151 32 151L0 151Z" fill="#f2f2f2"></path></svg>