<svg id="visual" viewBox="0 0 960 300" width="960" height="300" xmlns="http://www.w3.org/2000/svg" xmlns:xlink="http://www.w3.org/1999/xlink" version="1.1"><rect x="0" y="0" width="960" height="300" fill="#F2f2f2"></rect><path d="M0 186L20 186.8C40 187.7 80 189.3 120 187.8C160 186.3 200 181.7 240 177.2C280 172.7 320 168.3 360 169.5C400 170.7 440 177.3 480 183.2C520 189 560 194 600 193.7C640 193.3 680 187.7 720 185C760 182.3 800 182.7 840 179.2C880 175.7 920 168.3 940 164.7L960 161L960 301L940 301C920 301 880 301 840 301C800 301 760 301 720 301C680 301 640 301 600 301C560 301 520 301 480 301C440 301 400 301 360 301C320 301 280 301 240 301C200 301 160 301 120 301C80 301 40 301 20 301L0 301Z" fill="#f28f6b"></path><path d="M0 191L20 192.5C40 194 80 197 120 201.2C160 205.3 200 210.7 240 211.3C280 212 320 208 360 206.5C400 205 440 206 480 207.3C520 208.7 560 210.3 600 209.3C640 208.3 680 204.7 720 198.7C760 192.7 800 184.3 840 185.3C880 186.3 920 196.7 940 201.8L960 207L960 301L940 301C920 301 880 301 840 301C800 301 760 301 720 301C680 301 640 301 600 301C560 301 520 301 480 301C440 301 400 301 360 301C320 301 280 301 240 301C200 301 160 301 120 301C80 301 40 301 20 301L0 301Z" fill="#f3865f"></path><path d="M0 199L20 203.3C40 207.7 80 216.3 120 219.3C160 222.3 200 219.7 240 218C280 216.3 320 215.7 360 216.2C400 216.7 440 218.3 480 218.2C520 218 560 216 600 213.5C640 211 680 208 720 208.5C760 209 800 213 840 212.8C880 212.7 920 208.3 940 206.2L960 204L960 301L940 301C920 301 880 301 840 301C800 301 760 301 720 301C680 301 640 301 600 301C560 301 520 301 480 301C440 301 400 301 360 301C320 301 280 301 240 301C200 301 160 301 120 301C80 301 40 301 20 301L0 301Z" fill="#f47c53"></path><path d="M0 212L20 211.3C40 210.7 80 209.3 120 211.8C160 214.3 200 220.7 240 221.8C280 223 320 219 360 220.5C400 222 440 229 480 232C520 235 560 234 600 231.8C640 229.7 680 226.3 720 226.2C760 226 800 229 840 229.7C880 230.3 920 228.7 940 227.8L960 227L960 301L940 301C920 301 880 301 840 301C800 301 760 301 720 301C680 301 640 301 600 301C560 301 520 301 480 301C440 301 400 301 360 301C320 301 280 301 240 301C200 301 160 301 120 301C80 301 40 301 20 301L0 301Z" fill="#f47248"></path><path d="M0 246L20 244.5C40 243 80 240 120 235.8C160 231.7 200 226.3 240 223.2C280 220 320 219 360 222.5C400 226 440 234 480 235.5C520 237 560 232 600 228.7C640 225.3 680 223.7 720 223C760 222.3 800 222.7 840 224.7C880 226.7 920 230.3 940 232.2L960 234L960 301L940 301C920 301 880 301 840 301C800 301 760 301 720 301C680 301 640 301 600 301C560 301 520 301 480 301C440 301 400 301 360 301C320 301 280 301 240 301C200 301 160 301 120 301C80 301 40 301 20 301L0 301Z" fill="#f4673c"></path><path d="M0 232L20 232C40 232 80 232 120 236.7C160 241.3 200 250.7 240 254.8C280 259 320 258 360 255.5C400 253 440 249 480 249.5C520 250 560 255 600 255.5C640 256 680 252 720 248C760 244 800 240 840 241.8C880 243.7 920 251.3 940 255.2L960 259L960 301L940 301C920 301 880 301 840 301C800 301 760 301 720 301C680 301 640 301 600 301C560 301 520 301 480 301C440 301 400 301 360 301C320 301 280 301 240 301C200 301 160 301 120 301C80 301 40 301 20 301L0 301Z" fill="#f45c30"></path><path d="M0 260L20 258.7C40 257.3 80 254.7 120 255.7C160 256.7 200 261.3 240 261C280 260.7 320 255.3 360 251.8C400 248.3 440 246.7 480 247C520 247.3 560 249.7 600 251.5C640 253.3 680 254.7 720 255C760 255.3 800 254.7 840 256.3C880 258 920 262 940 264L960 266L960 301L940 301C920 301 880 301 840 301C800 301 760 301 720 301C680 301 640 301 600 301C560 301 520 301 480 301C440 301 400 301 360 301C320 301 280 301 240 301C200 301 160 301 120 301C80 301 40 301 20 301L0 301Z" fill="#f34f24"></path><path d="M0 268L20 268.8C40 269.7 80 271.3 120 272.5C160 273.7 200 274.3 240 272.2C280 270 320 265 360 265.2C400 265.3 440 270.7 480 270.7C520 270.7 560 265.3 600 262.7C640 260 680 260 720 261.2C760 262.3 800 264.7 840 268.5C880 272.3 920 277.7 940 280.3L960 283L960 301L940 301C920 301 880 301 840 301C800 301 760 301 720 301C680 301 640 301 600 301C560 301 520 301 480 301C440 301 400 301 360 301C320 301 280 301 240 301C200 301 160 301 120 301C80 301 40 301 20 301L0 301Z" fill="#f34117"></path><path d="M0 288L20 287C40 286 80 284 120 284C160 284 200 286 240 285.3C280 284.7 320 281.3 360 282.3C400 283.3 440 288.7 480 290.7C520 292.7 560 291.3 600 290.2C640 289 680 288 720 285.8C760 283.7 800 280.3 840 280.2C880 280 920 283 940 284.5L960 286L960 301L940 301C920 301 880 301 840 301C800 301 760 301 720 301C680 301 640 301 600 301C560 301 520 301 480 301C440 301 400 301 360 301C320 301 280 301 240 301C200 301 160 301 120 301C80 301 40 301 20 301L0 301Z" fill="#f23005"></path></svg>