<svg id="visual" viewBox="0 0 960 150" width="960" height="150" xmlns="http://www.w3.org/2000/svg" xmlns:xlink="http://www.w3.org/1999/xlink" version="1.1"><rect x="0" y="0" width="960" height="150" fill="#f2f2f2"></rect><path d="M0 70L32 67.3C64 64.7 128 59.3 192 51C256 42.7 320 31.3 384 31.8C448 32.3 512 44.7 576 52.5C640 60.3 704 63.7 768 61.5C832 59.3 896 51.7 928 47.8L960 44L960 151L928 151C896 151 832 151 768 151C704 151 640 151 576 151C512 151 448 151 384 151C320 151 256 151 192 151C128 151 64 151 32 151L0 151Z" fill="#f28f6b"></path><path d="M0 49L32 52.3C64 55.7 128 62.3 192 68C256 73.7 320 78.3 384 74.3C448 70.3 512 57.7 576 57.2C640 56.7 704 68.3 768 67.5C832 66.7 896 53.3 928 46.7L960 40L960 151L928 151C896 151 832 151 768 151C704 151 640 151 576 151C512 151 448 151 384 151C320 151 256 151 192 151C128 151 64 151 32 151L0 151Z" fill="#e67e79"></path><path d="M0 71L32 70.5C64 70 128 69 192 68.5C256 68 320 68 384 64.5C448 61 512 54 576 50.7C640 47.3 704 47.7 768 53.2C832 58.7 896 69.3 928 74.7L960 80L960 151L928 151C896 151 832 151 768 151C704 151 640 151 576 151C512 151 448 151 384 151C320 151 256 151 192 151C128 151 64 151 32 151L0 151Z" fill="#d17185"></path><path d="M0 79L32 79.5C64 80 128 81 192 84C256 87 320 92 384 91.7C448 91.3 512 85.7 576 83C640 80.3 704 80.7 768 82.3C832 84 896 87 928 88.5L960 90L960 151L928 151C896 151 832 151 768 151C704 151 640 151 576 151C512 151 448 151 384 151C320 151 256 151 192 151C128 151 64 151 32 151L0 151Z" fill="#b66a8d"></path><path d="M0 77L32 80.8C64 84.7 128 92.3 192 91.5C256 90.7 320 81.3 384 78.5C448 75.7 512 79.3 576 78.8C640 78.3 704 73.7 768 71.3C832 69 896 69 928 69L960 69L960 151L928 151C896 151 832 151 768 151C704 151 640 151 576 151C512 151 448 151 384 151C320 151 256 151 192 151C128 151 64 151 32 151L0 151Z" fill="#97648e"></path><path d="M0 99L32 97.7C64 96.3 128 93.7 192 93.7C256 93.7 320 96.3 384 100.8C448 105.3 512 111.7 576 109.5C640 107.3 704 96.7 768 93.5C832 90.3 896 94.7 928 96.8L960 99L960 151L928 151C896 151 832 151 768 151C704 151 640 151 576 151C512 151 448 151 384 151C320 151 256 151 192 151C128 151 64 151 32 151L0 151Z" fill="#775f89"></path><path d="M0 96L32 97C64 98 128 100 192 103.8C256 107.7 320 113.3 384 112.7C448 112 512 105 576 105C640 105 704 112 768 114C832 116 896 113 928 111.5L960 110L960 151L928 151C896 151 832 151 768 151C704 151 640 151 576 151C512 151 448 151 384 151C320 151 256 151 192 151C128 151 64 151 32 151L0 151Z" fill="#5a597d"></path><path d="M0 132L32 128.8C64 125.7 128 119.3 192 117.3C256 115.3 320 117.7 384 121.3C448 125 512 130 576 129C640 128 704 121 768 117.5C832 114 896 114 928 114L960 114L960 151L928 151C896 151 832 151 768 151C704 151 640 151 576 151C512 151 448 151 384 151C320 151 256 151 192 151C128 151 64 151 32 151L0 151Z" fill="#42516c"></path><path d="M0 124L32 124.3C64 124.7 128 125.3 192 128.5C256 131.7 320 137.3 384 137.3C448 137.3 512 131.7 576 129C640 126.3 704 126.7 768 129.2C832 131.7 896 136.3 928 138.7L960 141L960 151L928 151C896 151 832 151 768 151C704 151 640 151 576 151C512 151 448 151 384 151C320 151 256 151 192 151C128 151 64 151 32 151L0 151Z" fill="#324759"></path></svg>