<?xml version="1.0" encoding="UTF-8" standalone="no"?>
<svg
   id="visual"
   viewBox="0 0 960 150"
   width="960"
   height="150"
   version="1.1"
   sodipodi:docname="layereddiv1.svg"
   inkscape:version="1.2.2 (732a01da63, 2022-12-09)"
   xmlns:inkscape="http://www.inkscape.org/namespaces/inkscape"
   xmlns:sodipodi="http://sodipodi.sourceforge.net/DTD/sodipodi-0.dtd"
   xmlns="http://www.w3.org/2000/svg"
   xmlns:svg="http://www.w3.org/2000/svg">
  <defs
     id="defs292" />
  <sodipodi:namedview
     id="namedview290"
     pagecolor="#ffffff"
     bordercolor="#000000"
     borderopacity="0.25"
     inkscape:showpageshadow="2"
     inkscape:pageopacity="0.0"
     inkscape:pagecheckerboard="0"
     inkscape:deskcolor="#d1d1d1"
     showgrid="false"
     inkscape:zoom="5.1875"
     inkscape:cx="480"
     inkscape:cy="44.144578"
     inkscape:window-width="5120"
     inkscape:window-height="1369"
     inkscape:window-x="-8"
     inkscape:window-y="-8"
     inkscape:window-maximized="1"
     inkscape:current-layer="visual" />
  <path
     d="M0 28L32 26.3C64 24.7 128 21.3 192 19.2C256 17 320 16 384 23.3C448 30.7 512 46.3 576 51.8C640 57.3 704 52.7 768 47.2C832 41.7 896 35.3 928 32.2L960 29L960 151L928 151C896 151 832 151 768 151C704 151 640 151 576 151C512 151 448 151 384 151C320 151 256 151 192 151C128 151 64 151 32 151L0 151Z"
     fill="#f28f6b"
     id="path271" />
  <path
     d="M0 55L32 53.3C64 51.7 128 48.3 192 45.7C256 43 320 41 384 47C448 53 512 67 576 71.3C640 75.7 704 70.3 768 65.2C832 60 896 55 928 52.5L960 50L960 151L928 151C896 151 832 151 768 151C704 151 640 151 576 151C512 151 448 151 384 151C320 151 256 151 192 151C128 151 64 151 32 151L0 151Z"
     fill="#de7d5d"
     id="path273" />
  <path
     d="M0 83L32 76C64 69 128 55 192 54.7C256 54.3 320 67.7 384 73C448 78.3 512 75.7 576 72.2C640 68.7 704 64.3 768 66.3C832 68.3 896 76.7 928 80.8L960 85L960 151L928 151C896 151 832 151 768 151C704 151 640 151 576 151C512 151 448 151 384 151C320 151 256 151 192 151C128 151 64 151 32 151L0 151Z"
     fill="#cb6c50"
     id="path275" />
  <path
     d="M0 58L32 58.8C64 59.7 128 61.3 192 67.3C256 73.3 320 83.7 384 86.7C448 89.7 512 85.3 576 80.2C640 75 704 69 768 68C832 67 896 71 928 73L960 75L960 151L928 151C896 151 832 151 768 151C704 151 640 151 576 151C512 151 448 151 384 151C320 151 256 151 192 151C128 151 64 151 32 151L0 151Z"
     fill="#b75b43"
     id="path277" />
  <path
     d="M0 106L32 101.3C64 96.7 128 87.3 192 81.3C256 75.3 320 72.7 384 73.2C448 73.7 512 77.3 576 78.2C640 79 704 77 768 79C832 81 896 87 928 90L960 93L960 151L928 151C896 151 832 151 768 151C704 151 640 151 576 151C512 151 448 151 384 151C320 151 256 151 192 151C128 151 64 151 32 151L0 151Z"
     fill="#a44a36"
     id="path279" />
  <path
     d="M0 106L32 103.2C64 100.3 128 94.7 192 92.2C256 89.7 320 90.3 384 91.8C448 93.3 512 95.7 576 99.8C640 104 704 110 768 111.8C832 113.7 896 111.3 928 110.2L960 109L960 151L928 151C896 151 832 151 768 151C704 151 640 151 576 151C512 151 448 151 384 151C320 151 256 151 192 151C128 151 64 151 32 151L0 151Z"
     fill="#91392a"
     id="path281" />
  <path
     d="M0 114L32 114C64 114 128 114 192 113.5C256 113 320 112 384 112.5C448 113 512 115 576 114C640 113 704 109 768 109.8C832 110.7 896 116.3 928 119.2L960 122L960 151L928 151C896 151 832 151 768 151C704 151 640 151 576 151C512 151 448 151 384 151C320 151 256 151 192 151C128 151 64 151 32 151L0 151Z"
     fill="#7e291e"
     id="path283" />
  <path
     d="M0 123L32 123.7C64 124.3 128 125.7 192 124.3C256 123 320 119 384 116.8C448 114.7 512 114.3 576 117C640 119.7 704 125.3 768 128.8C832 132.3 896 133.7 928 134.3L960 135L960 151L928 151C896 151 832 151 768 151C704 151 640 151 576 151C512 151 448 151 384 151C320 151 256 151 192 151C128 151 64 151 32 151L0 151Z"
     fill="#6b1712"
     id="path285" />
  <path
     d="M0 143L32 142.5C64 142 128 141 192 140.3C256 139.7 320 139.3 384 138.3C448 137.3 512 135.7 576 133.2C640 130.7 704 127.3 768 125.7C832 124 896 124 928 124L960 124L960 151L928 151C896 151 832 151 768 151C704 151 640 151 576 151C512 151 448 151 384 151C320 151 256 151 192 151C128 151 64 151 32 151L0 151Z"
     fill="#590202"
     id="path287" />
</svg>
